<?xml version="1.0" encoding="UTF-8" standalone="no"?>
<svg
   xmlns:dc="http://purl.org/dc/elements/1.1/"
   xmlns:cc="http://creativecommons.org/ns#"
   xmlns:rdf="http://www.w3.org/1999/02/22-rdf-syntax-ns#"
   xmlns:svg="http://www.w3.org/2000/svg"
   xmlns="http://www.w3.org/2000/svg"
   xmlns:xlink="http://www.w3.org/1999/xlink"
   width="44.069767mm"
   height="16.484543mm"
   viewBox="0 0 44.069768 16.484543"
   version="1.1"
   id="svg8">
  <title
     id="title3483">Logo_prototip1</title>
  <defs
     id="defs2">
    <linearGradient
       id="linearGradient1073">
      <stop
         style="stop-color:#7a4126;stop-opacity:1;"
         offset="0"
         id="stop1069" />
      <stop
         style="stop-color:#7a4126;stop-opacity:0;"
         offset="1"
         id="stop1071" />
    </linearGradient>
    <rect
       x="61.421131"
       y="134.65402"
       width="48.286457"
       height="22.678572"
       id="rect857" />
    <rect
       x="65.673363"
       y="135.40997"
       width="33.639881"
       height="17.670387"
       id="rect851" />
    <rect
       x="65.673363"
       y="132.66965"
       width="63.594494"
       height="33.072918"
       id="rect845" />
    <rect
       x="86.178574"
       y="145.61533"
       width="60.381699"
       height="15.40253"
       id="rect835" />
    <linearGradient
       xlink:href="#linearGradient1073"
       id="linearGradient1075"
       x1="117.64101"
       y1="74.62606"
       x2="205.92812"
       y2="74.62606"
       gradientUnits="userSpaceOnUse"
       gradientTransform="translate(6.6388235,3.4941177)" />
    <radialGradient
       xlink:href="#linearGradient1073"
       id="radialGradient1093"
       cx="161.7791"
       cy="74.625954"
       fx="161.7791"
       fy="74.625954"
       r="44.280983"
       gradientTransform="matrix(1,0,0,0.20430726,6.6388235,62.873447)"
       gradientUnits="userSpaceOnUse" />
  </defs>
  <metadata
     id="metadata5">
    <rdf:RDF>
      <cc:Work
         rdf:about="">
        <dc:format>image/svg+xml</dc:format>
        <dc:type
           rdf:resource="http://purl.org/dc/dcmitype/StillImage" />
        <dc:title>Logo_prototip1</dc:title>
      </cc:Work>
    </rdf:RDF>
  </metadata>
  <text
     xml:space="preserve"
     id="text833"
     style="font-style:normal;font-variant:normal;font-weight:normal;font-stretch:normal;font-size:10.5833px;line-height:1.25;font-family:'Bauhaus 93';-inkscape-font-specification:'Bauhaus 93, ';white-space:pre;shape-inside:url(#rect835);fill:#000000;fill-opacity:1;stroke:none;"
     transform="translate(-140.92621,-153.03941)" />
  <text
     xml:space="preserve"
     id="text843"
     style="font-style:normal;font-weight:normal;font-size:10.5833px;line-height:1.25;font-family:sans-serif;white-space:pre;shape-inside:url(#rect845);fill:#000000;fill-opacity:1;stroke:none;"
     transform="translate(-140.92621,-153.03941)" />
  <text
     xml:space="preserve"
     id="text849"
     style="font-style:normal;font-variant:normal;font-weight:normal;font-stretch:normal;font-size:10.5833px;line-height:1.25;font-family:Stencil;-inkscape-font-specification:Stencil;white-space:pre;shape-inside:url(#rect851);"
     transform="translate(-140.92621,-153.03941)"><tspan
       style="visibility:hidden"
       x="65.673828"
       y="164.98629"><tspan
         dx="0 6.8626084 5.9272685 6.862608 5.927269 6.862606"
         style="font-style:normal;font-variant:normal;font-weight:normal;font-stretch:normal;font-family:Stencil;-inkscape-font-specification:Stencil">dsdsds</tspan></tspan></text>
  <text
     xml:space="preserve"
     id="text855"
     style="font-size:10.5833px;line-height:1.25;font-family:'Cooper Black';-inkscape-font-specification:'Cooper Black, ';white-space:pre;shape-inside:url(#rect857);"
     transform="translate(-140.92621,-153.03941)" />
  <path
     id="text863-3"
     style="font-style:normal;font-variant:normal;font-weight:normal;font-stretch:normal;line-height:1.25;font-family:'Rockwell Extra Bold';-inkscape-font-specification:'Rockwell Extra Bold, ';baseline-shift:baseline;fill:#552200;stroke-width:0.272129"
     d="M 2.546419,0 0,15.920762 l 3.523743,0.56378 1.194225,-7.46435 5.458144,0.907363 -3.255668,3.771205 1.781948,1.538162 3.462253,-4.010571 0.841073,5.258191 3.524117,-0.56378 L 13.983046,0 10.459296,0.56378 11.642839,7.96406 5.061912,6.869999 6.070533,0.56378 Z m 23.403893,4.50475 -2.530221,0.0085 0.004,1.273764 0.430112,-0.0013 0.01108,3.260822 -0.430112,0.0013 0.004,1.273397 2.902154,-0.0096 -0.004,-1.273397 -0.371566,0.0013 z m 10.485441,1.605926 c -0.796103,0.0029 -1.425622,0.211029 -1.8891,0.624549 -0.469048,0.413536 -0.702831,0.929046 -0.700775,1.546996 0.0023,0.631879 0.241895,1.141958 0.719186,1.530068 0.477303,0.390895 1.187774,0.584981 2.131409,0.581832 0.56228,-0.0021 1.045048,-0.112222 1.447942,-0.330689 0.200067,-0.106442 0.369482,-0.230973 0.508189,-0.373403 0.13869,-0.145205 0.246718,-0.308209 0.324054,-0.4894 L 37.242954,8.993311 C 37.115907,9.294364 36.907533,9.445288 36.61804,9.446255 36.136477,9.447555 35.890615,9.120298 35.880075,8.4634 l 3.19012,-0.01071 C 39.036895,7.662252 38.782786,7.074494 38.308291,6.689156 37.825431,6.301065 37.201246,6.108087 36.435753,6.110639 Z m 7.628588,0.0166 c -0.361863,0.0013 -0.635965,0.02864 -0.822288,0.08212 -0.194664,0.0563 -0.386159,0.175264 -0.574836,0.356828 -0.197018,0.184379 -0.342574,0.403331 -0.436375,0.656954 l -0.0034,-1.014884 -2.513647,0.0085 0.004,1.273766 0.550896,-0.0021 0.0052,1.502809 -0.551269,0.0021 0.004,1.273759 3.265241,-0.01106 -0.004,-1.273394 -0.613869,0.0021 c 0.0023,-0.244962 0.04312,-0.44266 0.123362,-0.593239 0.07746,-0.145008 0.224706,-0.262246 0.441531,-0.352047 0.208477,-0.08699 0.526927,-0.131138 0.955598,-0.13257 0.06962,-2.28e-4 0.127955,5.35e-4 0.175283,0.0036 z m -23.924957,0.03791 c -0.796103,0.0029 -1.425989,0.210654 -1.889468,0.624174 -0.469053,0.413545 -0.702468,0.929419 -0.700407,1.54737 0.0023,0.631877 0.241889,1.141953 0.719186,1.530067 0.477297,0.390895 1.187774,0.584611 2.131409,0.581459 0.56228,-0.0021 1.044681,-0.111851 1.447575,-0.330316 0.200066,-0.106443 0.36947,-0.230977 0.508177,-0.373399 0.138696,-0.145212 0.246718,-0.308575 0.32406,-0.48977 L 20.946579,9.047819 c -0.127041,0.301053 -0.335421,0.451974 -0.624914,0.452944 -0.481551,0.0013 -0.727419,-0.325952 -0.737959,-0.982855 l 3.189747,-0.01068 C 22.740153,7.716793 22.486417,7.129032 22.011916,6.743694 21.529056,6.355608 20.904865,6.162625 20.139384,6.165183 Z m 10.747636,0.0057 c -0.470419,0.0013 -0.927853,0.118792 -1.372449,0.351311 l -0.0011,-0.271398 -2.588774,0.0085 0.004,1.273395 0.488297,-0.0013 0.01142,3.360984 -0.496764,0.0021 0.004,1.273397 3.131569,-0.01033 -0.004,-1.273392 -0.534327,0.0013 -0.0029,-0.843285 c 0.357041,0.221499 0.786344,0.331623 1.287391,0.32995 0.676405,-0.0021 1.225303,-0.190852 1.64716,-0.565256 0.419089,-0.371623 0.62779,-0.877326 0.625654,-1.517549 -0.0023,-0.634652 -0.218133,-1.147476 -0.648113,-1.538529 -0.432753,-0.38826 -0.949806,-0.581625 -1.55105,-0.579625 z m 5.593667,0.86244 c 0.183711,-5.36e-4 0.331546,0.06976 0.443363,0.211371 0.111828,0.144371 0.167923,0.32657 0.168657,0.546478 3.5e-5,0.01112 -0.0023,0.05858 -0.0078,0.142141 l -1.1817,0.0036 c -0.0029,-0.02509 -0.004,-0.05259 -0.004,-0.08323 -5.34e-4,-0.231037 0.04874,-0.426146 0.148404,-0.585141 0.09969,-0.156218 0.244139,-0.234682 0.43343,-0.235309 z m -16.296374,0.05451 c 0.183716,-5.36e-4 0.331545,0.06976 0.443362,0.211374 0.111828,0.144371 0.167929,0.326575 0.168658,0.546479 3.4e-5,0.01111 -0.0023,0.05822 -0.0078,0.141771 l -1.1817,0.0043 c -0.0029,-0.02501 -0.004,-0.05295 -0.004,-0.0836 -5.74e-4,-0.23104 0.04874,-0.425779 0.148404,-0.584775 0.09969,-0.156215 0.244146,-0.234679 0.43343,-0.235306 z m 10.046861,0.287969 c 0.456509,-0.0013 0.685905,0.294202 0.687886,0.887102 0.0023,0.606822 -0.235092,0.91093 -0.711091,0.912513 C 30.007558,9.175956 29.841811,9.10141 29.710475,8.951529 29.576372,8.804448 29.508916,8.584647 29.50794,8.292366 29.507406,7.975037 29.57549,7.742538 29.714155,7.594546 29.850066,7.449338 30.022398,7.376504 30.231174,7.375805 Z" />
</svg>
